inDegrees=yes
name=SYN01_S01_straightWalk_ik.mot
DataType=double
version=3
OpenSimVersion=4.5
endheader
time	pelvis_tilt	pelvis_list	pelvis_rotation	pelvis_tx	pelvis_ty	pelvis_tz	hip_flexion_r	hip_adduction_r	hip_rotation_r	knee_angle_r	knee_angle_r_beta	ankle_angle_r	subtalar_angle_r	mtp_angle_r	hip_flexion_l	hip_adduction_l	hip_rotation_l	knee_angle_l	knee_angle_l_beta	ankle_angle_l	subtalar_angle_l	mtp_angle_l	lumbar_extension	lumbar_bending	lumbar_rotation	arm_flex_r	arm_add_r	arm_rot_r	elbow_flex_r	pro_sup_r	wrist_flex_r	wrist_dev_r	arm_flex_l	arm_add_l	arm_rot_l	elbow_flex_l	pro_sup_l	wrist_flex_l	wrist_dev_l
6.75	2.051415626146896	-2.550879855566949	129.0051110891307	0	0.93	0	13.13692512126189	-6.065179927089159	-2.01599378119343	58.26933659175609	1.016991776478955	0.9499450990411045	0	0	39.58339955708899	-9.962985550558559	2.720990493615202e-16	53.88670536493888	0.940500431670276	-4.995218211707622	0	0	0	0	0	0	0	0	0	0	0	0	0	0	0	0	0	0	0
6.76	2.248873873148551	-2.790651027080846	129.0170979786298	0	0.93	0	14.23600999168014	-5.998455936013603	-2.053636045978956	57.88820678512356	1.010339806475765	1.446088160866803	-3.218964750558193e-11	-5.84369952049601e-11	39.58866209993803	-9.963108014710279	2.720990493615202e-16	53.89142486397856	0.9405828024675631	-4.995238709677729	-9.203980199369342e-11	3.582144348858309e-12	0	2.269290608745776e-21	4.356684482902965e-28	-1.45740344668559e-11	2.555819075409016e-22	-2.439563351822212e-12	1.088732279486452e-05	1.090558051103206e-05	5.348496009701954e-16	1.76416029455209e-16	2.907985019166443e-12	3.458762360399596e-14	-3.130219791726582e-12	1.090569682458089e-05	1.090558036054895e-05	4.413178477848439e-15	1.785691519156528e-16
6.77	2.437164753703011	-3.017327034438309	129.0268289777771	0	0.93	0	15.35245480020191	-5.915007695001886	-2.110537998329918	57.28931550368814	0.9998871817531916	1.898209529593177	0	0	39.60847066652254	-9.96345272906159	2.720990493615202e-16	53.91296664876159	0.940958777538783	-4.995292811067601	0	0	0	0	0	0	0	0	0	0	0	0	0	0	0	0	0	0	0
6.78	2.613631065977259	-3.241383506555295	129.0328253349938	0	0.93	0	16.45920214255614	-5.812452955563645	-2.188159319337467	56.39791358234888	0.9843292832672181	2.257076306812513	0	0	39.62531338657522	-9.963732391393112	2.720990493615202e-16	53.93173506089656	0.9412863481259094	-4.995336204571939	0	0	0	0	0	0	0	0	8.559697895663256e-40	6.567801934775725e-40	0	0	0	0	0	8.559697895663256e-40	6.567801934775725e-40	0	0
6.79	2.786129056660239	-3.447593653977565	129.037602081245	0	0.93	0	17.55140326614262	-5.682578662551741	-2.293200535888235	55.20544133927505	0.9635167163869377	2.522298484001752	0	0	39.64175244164144	-9.964004343400942	2.720990493615202e-16	53.9500500209961	0.9416060044820179	-4.995378347569007	0	0	0	0	0	0	0	0	2.737747110930743e-39	1.247478519092558e-38	0	0	0	0	0	2.737747110930743e-39	1.247478519092558e-38	0	0
6.8	2.913480262126757	-3.616168565003299	129.0489990244783	0	0.93	0	18.51191417258602	-5.530883430400893	-2.425530383289948	53.6480189853776	0.9363345684672667	2.705146015169178	0	0	39.65878692955181	-9.964289466517879	2.720990493615202e-16	53.96887909035963	0.9419346337374979	-4.995422660256719	0	0	0	0	0	0	0	0	0	2.33034540724759e-39	0	0	0	0	0	0	2.33034540724759e-39	0	0
6.81	3.026016935587223	-3.735632751055378	129.062923880373	0	0.93	0	19.44108181557701	-5.3352487864064	-2.576067644689231	51.87157180589769	0.9053297161975757	2.81043005074338	0	0	39.68548965629375	-9.964735424665896	2.720990493615202e-16	53.99842241899673	0.942450262094214	-4.995491934136839	0	0	0	0	0	0	0	0	0	0	0	0	0	0	0	2.029704188777915e-38	1.573965806980399e-38	0	0
6.82	3.117220474515136	-3.862902479584668	129.0685850903108	0	0.93	0	20.38987084265959	-5.137274216372303	-2.715478236906475	49.91293267552952	0.8711450145142526	2.869760137031311	3.527208315903441e-19	2.570161845579e-23	39.7115446853077	-9.965167163857865	2.720990493615202e-16	54.02725658517397	0.942953513231074	-4.995558814782515	1.144043723610061e-19	4.573314276825487e-23	2.123012033128233e-40	-8.085658192003924e-19	4.415584339579037e-29	-2.450676985535995e-16	-1.000689603534358e-22	2.856691658101405e-14	0	0	-4.517608923390933e-19	1.797120861073044e-18	-4.78087066462108e-14	3.951367668898599e-14	1.700007544182322e-14	0	0	-5.044776367769174e-19	-3.473447996242651e-19
6.83	3.195853392488942	-3.961832095172555	129.0740545135516	0	0.93	0	21.30496592380155	-4.901395379474858	-2.859055584340707	47.70797923100029	0.8326613170540275	2.858975673517545	0	0	39.73669285364311	-9.965578496475702	2.721648021595153e-16	54.055173328208	0.943440752313451	-4.995622274473737	0	0	0	0	0	0	0	0	0	0	0	0	0	0	0	0	0	0	0
